<mxfile host="app.diagrams.net" modified="2021-02-05T07:07:13.557Z" agent="5.0 (Macintosh; Intel Mac OS X 10_15_7) AppleWebKit/537.36 (KHTML, like Gecko) Chrome/88.0.4324.96 Safari/537.36" etag="N0U3CshsMybpzw3XFU3R" version="14.2.5" type="github">
  <diagram id="wFE0QG_FPsp0jaGvCLVb" name="Page-1">
    <mxGraphModel dx="1352" dy="872" grid="1" gridSize="10" guides="1" tooltips="1" connect="1" arrows="1" fold="1" page="1" pageScale="1" pageWidth="850" pageHeight="1100" math="0" shadow="0">
      <root>
        <mxCell id="0" />
        <mxCell id="1" parent="0" />
        <mxCell id="XHP7CSFlEneb-SU_DZhy-2" value="&lt;span style=&quot;font-weight: 400 ; font-size: 14pt ; line-height: 28px&quot;&gt;系统内党员调整&lt;/span&gt;&lt;span style=&quot;font-size: medium ; font-weight: 400&quot;&gt;&lt;/span&gt;" style="shape=table;childLayout=tableLayout;rowLines=0;columnLines=0;startSize=40;html=1;whiteSpace=wrap;collapsible=0;recursiveResize=0;expand=0;pointerEvents=0;fontStyle=1;align=center;" vertex="1" parent="1">
          <mxGeometry width="850" height="320" as="geometry" />
        </mxCell>
        <mxCell id="XHP7CSFlEneb-SU_DZhy-3" value="党务工作者" style="swimlane;horizontal=0;points=[[0,0.5],[1,0.5]];portConstraint=eastwest;startSize=40;html=1;whiteSpace=wrap;collapsible=0;recursiveResize=0;expand=0;pointerEvents=0;fontStyle=1" vertex="1" parent="XHP7CSFlEneb-SU_DZhy-2">
          <mxGeometry y="40" width="850" height="280" as="geometry" />
        </mxCell>
        <mxCell id="XHP7CSFlEneb-SU_DZhy-63" value="来源党支部" style="swimlane;connectable=0;startSize=40;html=1;whiteSpace=wrap;collapsible=0;recursiveResize=0;expand=0;pointerEvents=0;" vertex="1" parent="XHP7CSFlEneb-SU_DZhy-3">
          <mxGeometry x="40" width="203" height="280" as="geometry" />
        </mxCell>
        <mxCell id="XHP7CSFlEneb-SU_DZhy-5" value="来源党支部上级党组织" style="swimlane;connectable=0;startSize=40;html=1;whiteSpace=wrap;collapsible=0;recursiveResize=0;expand=0;pointerEvents=0;" vertex="1" parent="XHP7CSFlEneb-SU_DZhy-3">
          <mxGeometry x="243" width="202" height="280" as="geometry" />
        </mxCell>
        <mxCell id="XHP7CSFlEneb-SU_DZhy-64" value="最高级党组织" style="swimlane;connectable=0;startSize=40;html=1;whiteSpace=wrap;collapsible=0;recursiveResize=0;expand=0;pointerEvents=0;" vertex="1" parent="XHP7CSFlEneb-SU_DZhy-3">
          <mxGeometry x="445" width="203" height="280" as="geometry" />
        </mxCell>
        <mxCell id="XHP7CSFlEneb-SU_DZhy-6" value="目标党支部" style="swimlane;connectable=0;startSize=40;html=1;whiteSpace=wrap;collapsible=0;recursiveResize=0;expand=0;pointerEvents=0;" vertex="1" parent="XHP7CSFlEneb-SU_DZhy-3">
          <mxGeometry x="648" width="202" height="280" as="geometry" />
        </mxCell>
      </root>
    </mxGraphModel>
  </diagram>
</mxfile>
